<svg width="139" height="20" viewBox="0 0 139 20" fill="none" xmlns="http://www.w3.org/2000/svg">
<path d="M8.128 3.8H9.6V15H8.128V9.96H2.688V15H1.2V3.8H2.688V8.552H8.128V3.8ZM18.4769 7H19.8689V15H18.4769V13.624C17.7835 14.68 16.7755 15.208 15.4529 15.208C14.3329 15.208 13.3782 14.8027 12.5889 13.992C11.7995 13.1707 11.4049 12.1733 11.4049 11C11.4049 9.82667 11.7995 8.83467 12.5889 8.024C13.3782 7.20267 14.3329 6.792 15.4529 6.792C16.7755 6.792 17.7835 7.32 18.4769 8.376V7ZM15.6289 13.864C16.4395 13.864 17.1169 13.592 17.6609 13.048C18.2049 12.4933 18.4769 11.8107 18.4769 11C18.4769 10.1893 18.2049 9.512 17.6609 8.968C17.1169 8.41333 16.4395 8.136 15.6289 8.136C14.8289 8.136 14.1569 8.41333 13.6129 8.968C13.0689 9.512 12.7969 10.1893 12.7969 11C12.7969 11.8107 13.0689 12.4933 13.6129 13.048C14.1569 13.592 14.8289 13.864 15.6289 13.864ZM31.5459 7H32.9379V15H21.9779V7H23.3699V13.672H26.7619V7H28.1539V13.672H31.5459V7ZM40.8796 7H41.9996V15H40.6236V9.384L36.1916 15H35.0716V7H36.4476V12.616L40.8796 7ZM51.8785 15.208C50.6732 15.208 49.6705 14.808 48.8705 14.008C48.0705 13.1973 47.6705 12.1947 47.6705 11C47.6705 9.80533 48.0705 8.808 48.8705 8.008C49.6705 7.19733 50.6732 6.792 51.8785 6.792C52.6678 6.792 53.3772 6.984 54.0065 7.368C54.6358 7.74133 55.1052 8.248 55.4145 8.888L54.2465 9.56C54.0438 9.13333 53.7292 8.792 53.3025 8.536C52.8865 8.28 52.4118 8.152 51.8785 8.152C51.0785 8.152 50.4065 8.424 49.8625 8.968C49.3292 9.512 49.0625 10.1893 49.0625 11C49.0625 11.8 49.3292 12.472 49.8625 13.016C50.4065 13.56 51.0785 13.832 51.8785 13.832C52.4118 13.832 52.8918 13.7093 53.3185 13.464C53.7452 13.208 54.0705 12.8667 54.2945 12.44L55.4785 13.128C55.1372 13.7573 54.6465 14.264 54.0065 14.648C53.3665 15.0213 52.6572 15.208 51.8785 15.208ZM63.3675 7H64.7595V15H63.3675V13.624C62.6742 14.68 61.6662 15.208 60.3435 15.208C59.2235 15.208 58.2688 14.8027 57.4795 13.992C56.6902 13.1707 56.2955 12.1733 56.2955 11C56.2955 9.82667 56.6902 8.83467 57.4795 8.024C58.2688 7.20267 59.2235 6.792 60.3435 6.792C61.6662 6.792 62.6742 7.32 63.3675 8.376V7ZM60.5195 13.864C61.3302 13.864 62.0075 13.592 62.5515 13.048C63.0955 12.4933 63.3675 11.8107 63.3675 11C63.3675 10.1893 63.0955 9.512 62.5515 8.968C62.0075 8.41333 61.3302 8.136 60.5195 8.136C59.7195 8.136 59.0475 8.41333 58.5035 8.968C57.9595 9.512 57.6875 10.1893 57.6875 11C57.6875 11.8107 57.9595 12.4933 58.5035 13.048C59.0475 13.592 59.7195 13.864 60.5195 13.864ZM73.5405 7V15H72.1485V8.344H68.9965V11.608C68.9965 12.92 68.7298 13.8373 68.1965 14.36C67.6738 14.872 66.9325 15.0853 65.9725 15V13.688C66.5165 13.7627 66.9218 13.6453 67.1885 13.336C67.4658 13.016 67.6045 12.4293 67.6045 11.576V7H73.5405ZM82.4018 13.992C81.5804 14.8027 80.5831 15.208 79.4098 15.208C78.2364 15.208 77.2391 14.8027 76.4178 13.992C75.6071 13.1813 75.2018 12.184 75.2018 11C75.2018 9.816 75.6071 8.81867 76.4178 8.008C77.2391 7.19733 78.2364 6.792 79.4098 6.792C80.5831 6.792 81.5804 7.19733 82.4018 8.008C83.2231 8.81867 83.6337 9.816 83.6337 11C83.6337 12.184 83.2231 13.1813 82.4018 13.992ZM79.4098 13.848C80.2098 13.848 80.8818 13.576 81.4258 13.032C81.9698 12.488 82.2418 11.8107 82.2418 11C82.2418 10.1893 81.9698 9.512 81.4258 8.968C80.8818 8.424 80.2098 8.152 79.4098 8.152C78.6204 8.152 77.9538 8.424 77.4098 8.968C76.8658 9.512 76.5938 10.1893 76.5938 11C76.5938 11.8107 76.8658 12.488 77.4098 13.032C77.9538 13.576 78.6204 13.848 79.4098 13.848ZM90.8108 7H92.2028V15H90.8108V11.656H86.6668V15H85.2747V7H86.6668V10.328H90.8108V7ZM97.6976 9.88C98.4976 9.88 99.159 10.12 99.6816 10.6C100.215 11.0693 100.482 11.6827 100.482 12.44C100.482 13.1973 100.215 13.816 99.6816 14.296C99.159 14.7653 98.4976 15 97.6976 15H94.3216V7H95.7136V9.88H97.6976ZM101.522 7H102.914V15H101.522V7ZM97.6976 13.704C98.0923 13.704 98.423 13.592 98.6896 13.368C98.967 13.1333 99.1056 12.824 99.1056 12.44C99.1056 12.056 98.967 11.7467 98.6896 11.512C98.423 11.2773 98.0923 11.16 97.6976 11.16H95.7136V13.704H97.6976Z" fill="black"/>
<circle cx="129" cy="10" r="10" fill="#4FBFA5"/>
<path d="M129 14L125 7L133 7L129 14Z" fill="white"/>
</svg>
